<?xml version="1.0" encoding="UTF-8" standalone="no"?>
<svg
   viewBox="535 256 540.49905 321.76725"
   width="273"
   height="210"
   version="1.1"
   id="svg22"
   sodipodi:docname="sample.svg"
   inkscape:version="1.4.2 (unknown)"
   xmlns:inkscape="http://www.inkscape.org/namespaces/inkscape"
   xmlns:sodipodi="http://sodipodi.sourceforge.net/DTD/sodipodi-0.dtd"
   xmlns="http://www.w3.org/2000/svg"
   xmlns:svg="http://www.w3.org/2000/svg">
  <defs
     id="defs22" />
  <sodipodi:namedview
     id="namedview22"
     pagecolor="#ffffff"
     bordercolor="#000000"
     borderopacity="0.25"
     inkscape:showpageshadow="2"
     inkscape:pageopacity="0.0"
     inkscape:pagecheckerboard="0"
     inkscape:deskcolor="#d1d1d1"
     inkscape:zoom="1.6507277"
     inkscape:cx="272.90995"
     inkscape:cy="196.27708"
     inkscape:window-width="1920"
     inkscape:window-height="1008"
     inkscape:window-x="0"
     inkscape:window-y="0"
     inkscape:window-maximized="1"
     inkscape:current-layer="svg22" />
  <path
     d="m 713.19445,480.88826 q -79.15416,64.15912 -67.36403,-6.94442"
     fill="none"
     stroke="#000000"
     stroke-width="3"
     id="path1" />
  <path
     d="M 647.79341,462.10548 Q 661.62879,378.6675 676.44567,289.31034"
     fill="none"
     stroke="#000000"
     stroke-width="3"
     id="path2" />
  <path
     d="m 676.44567,289.31034 q 22.59462,-136.26295 115.87082,-7.1113"
     fill="none"
     stroke="#000000"
     stroke-width="3"
     id="path3" />
  <path
     d="m 799.34237,291.92719 q 12.64596,17.50978 28.80485,39.88364"
     fill="none"
     stroke="#000000"
     stroke-width="3"
     id="path4" />
  <path
     d="m 828.14722,331.81083 q 12.7328,17.63003 25.4656,35.26006"
     fill="none"
     stroke="#000000"
     stroke-width="3"
     id="path5" />
  <path
     d="M 853.61282,367.07089 Q 972.04029,531.04738 822.29255,502.02928"
     fill="none"
     stroke="#000000"
     stroke-width="3"
     id="path6" />
  <path
     d="M 822.29255,502.02928 Q 767.7435,491.45877 719.08488,482.02971"
     fill="none"
     stroke="#000000"
     stroke-width="3"
     id="path7" />
  <path
     d="m 707.30403,479.74682 q -27.30085,-5.29036 -60.49212,-11.72216"
     fill="none"
     stroke="#000000"
     stroke-width="3"
     id="path8" />
  <path
     d="M 646.81191,468.02466 Q 554.04029,450.04738 542.54029,371.04738"
     fill="none"
     stroke="#000000"
     stroke-width="3"
     id="path9" />
  <path
     d="m 542.54029,371.04738 q -11.5,-79 127.90644,-81.62412"
     fill="none"
     stroke="#000000"
     stroke-width="3"
     id="path10" />
  <path
     d="m 682.4446,289.19742 q 53.69295,-1.01069 113.38483,-2.1343"
     fill="none"
     stroke="#000000"
     stroke-width="3"
     id="path11" />
  <path
     d="m 795.82943,287.06312 q 160.21086,-3.01574 105.07779,41.67287"
     fill="none"
     stroke="#000000"
     stroke-width="3"
     id="path12" />
  <path
     d="m 891.585,336.2922 q -16.65554,13.50029 -33.31107,27.00059"
     fill="none"
     stroke="#000000"
     stroke-width="3"
     id="path13" />
  <path
     d="m 848.95171,370.84899 q -27.78696,22.52298 -55.57392,45.04595"
     fill="none"
     stroke="#000000"
     stroke-width="3"
     id="path14" />
  <path
     d="m 784.05557,423.45115 q -33.1,26.8295 -70.86112,57.43711"
     fill="none"
     stroke="#000000"
     stroke-width="3"
     id="path15" />
  <path
     d="m 896.24611,332.5141 q 69.79418,56.53328 125.29419,113.53328"
     fill="none"
     stroke="#000000"
     stroke-width="3"
     id="path16" />
  <path
     d="m 1021.5403,446.04738 q 55.5,57 38,122.5"
     fill="none"
     stroke="#000000"
     stroke-width="3"
     id="path17" />
  <path
     d="m 1059.5403,568.54738 q -17.5,65.5 -130.50001,24.5"
     fill="none"
     stroke="#000000"
     stroke-width="3"
     id="path18" />
  <path
     d="m 929.04029,593.04738 q -113,-41 -107.49195,-85.06443"
     fill="none"
     stroke="#000000"
     stroke-width="3"
     id="path19" />
  <path
     d="m 823.03676,496.07561 q 5.00353,-40.02823 -34.32008,-76.40257"
     fill="none"
     stroke="#000000"
     stroke-width="3"
     id="path20" />
  <path
     d="m 788.71668,419.67304 q -40.67639,-37.62566 34.3474,-84.67447"
     fill="none"
     stroke="#000000"
     stroke-width="3"
     id="path21" />
  <path
     d="m 833.23037,328.6231 q 32.80992,-20.57572 63.01574,3.891"
     fill="none"
     stroke="#000000"
     stroke-width="3"
     id="path22" />
</svg>
